<svg width="42" height="42" viewBox="0 0 42 42" fill="none" xmlns="http://www.w3.org/2000/svg">
<path d="M3.90137 11.2778C3.90137 6.98225 7.38359 3.5 11.6791 3.5H30.3458C34.6414 3.5 38.1236 6.98225 38.1236 11.2778V25.2778C38.1236 29.5733 34.6414 33.0556 30.3458 33.0556H24.9014V27.6111H29.568C31.2862 27.6111 32.6791 26.2182 32.6791 24.5V12.0556C32.6791 10.3373 31.2862 8.94444 29.568 8.94444H12.4569C10.7387 8.94444 9.34581 10.3373 9.34581 12.0556V24.5C9.34581 26.2182 10.7387 27.6111 12.4569 27.6111H17.1236V33.0556H11.6791C7.38359 33.0556 3.90137 29.5733 3.90137 25.2778V11.2778Z" fill="#FF5100"/>
<path d="M17.1236 33.0556L24.9014 27.6111V33.0556L17.1236 38.8889V33.0556Z" fill="#FF5100"/>
</svg>
