<svg width="66" height="50" viewBox="0 0 66 50" fill="none" xmlns="http://www.w3.org/2000/svg">
<path d="M52.6664 24.4988C57.0776 24.3965 61.3813 24.2976 65.8059 24.1953C65.4663 24.6321 65.193 24.9868 64.9171 25.3398C62.6558 28.2283 60.3903 31.1142 58.1374 34.0094C57.9135 34.297 57.8229 34.3876 57.6251 33.9801C57.1941 33.093 56.6894 32.242 56.2575 31.3549C56.084 30.9977 55.9507 30.9985 55.6329 31.1838C49.1365 34.9787 42.6335 38.7626 36.1321 42.5483C35.6919 42.804 35.2383 43.0388 34.8141 43.318C34.555 43.4882 34.3739 43.4437 34.1307 43.2861C30.2872 40.7992 26.4337 38.3266 22.5944 35.8322C22.3043 35.6436 22.1291 35.6889 21.8851 35.8641C15.3896 40.515 8.88817 45.1575 2.4002 49.8185C2.01787 50.0935 1.85353 50.06 1.60619 49.676C1.14923 48.9666 0.641125 48.2892 0.135536 47.6125C-0.054793 47.3576 -0.0623382 47.226 0.226929 47.0197C6.52876 42.534 12.8214 38.0349 19.1157 33.5391C19.9977 32.9085 20.8957 32.2981 21.7559 31.6391C22.0645 31.4027 22.2599 31.4211 22.5701 31.6223C26.328 34.0648 30.1053 36.4795 33.8532 38.9379C34.4074 39.3009 34.7822 39.3194 35.3658 38.9748C41.5837 35.3015 47.8218 31.6609 54.0641 28.0279C54.3702 27.8501 54.3853 27.7403 54.2285 27.4544C53.7053 26.5053 53.214 25.5419 52.6664 24.4988Z" fill="white"/>
<path d="M25.6618 31.3525C24.581 30.7061 23.5631 30.1141 22.5662 29.4886C22.2719 29.3042 22.0849 29.3277 21.8183 29.5381C20.4416 30.6214 19.0472 31.6837 17.6579 32.7511C17.5615 32.8249 17.4818 32.9372 17.3275 32.9339C17.2194 32.7762 17.2731 32.5985 17.2731 32.4333C17.2697 21.821 17.2739 11.2086 17.2588 0.596299C17.258 0.109157 17.3804 -0.00487363 17.86 0.000157106C20.3183 0.0269877 22.7775 0.019442 25.2367 0.00518827C25.5838 0.00351136 25.6953 0.0789718 25.6953 0.448731C25.6844 10.6142 25.6869 20.7796 25.6861 30.945C25.6853 31.0549 25.6727 31.1655 25.6618 31.3525Z" fill="#F49510"/>
<path d="M4.29851 42.0292C4.20293 41.8758 4.25324 41.698 4.25324 41.532C4.24988 31.8126 4.25492 22.0933 4.23731 12.3739C4.23647 11.8733 4.37901 11.7811 4.84519 11.7853C7.28845 11.8096 9.73171 11.8054 12.1741 11.7878C12.5548 11.7853 12.647 11.8934 12.647 12.2649C12.6361 19.9409 12.6386 27.6178 12.6403 35.2939C12.6403 35.5203 12.6328 35.7073 12.4148 35.8733C9.77698 37.8889 7.14926 39.918 4.51735 41.9412C4.4595 41.9873 4.40584 42.0602 4.29851 42.0292Z" fill="#FBBA11"/>
<path d="M42.6454 33.0172C42.6454 26.6978 42.6454 20.4437 42.6454 14.1889C42.6454 11.4765 42.6505 8.76406 42.6387 6.05166C42.637 5.70538 42.6832 5.55529 43.094 5.55865C45.6479 5.58045 48.2027 5.57793 50.7566 5.56032C51.1205 5.55781 51.2052 5.65675 51.2052 6.01225C51.1943 13.1123 51.1968 20.2123 51.2002 27.3124C51.2002 27.5488 51.1717 27.7257 50.9394 27.8699C48.2455 29.5469 45.5582 31.2355 42.8684 32.92C42.819 32.9518 42.7586 32.9686 42.6454 33.0172Z" fill="#ED2F33"/>
<path d="M38.2205 24.8188C38.2205 28.0259 38.2155 31.233 38.2272 34.4401C38.2281 34.7645 38.1375 34.9557 37.8516 35.1268C36.853 35.7246 35.8695 36.3475 34.8885 36.9747C34.6655 37.1172 34.5003 37.1533 34.2504 37.0007C32.8611 36.1555 31.4617 35.3263 30.054 34.5122C29.8058 34.3688 29.7437 34.2061 29.7437 33.9412C29.7496 27.6863 29.7513 21.4314 29.7412 15.1765C29.7404 14.842 29.8267 14.7523 30.1621 14.7548C32.7001 14.7691 35.239 14.7699 37.777 14.754C38.1283 14.7514 38.2297 14.8303 38.2281 15.1958C38.2138 18.4046 38.2205 21.6117 38.2205 24.8188Z" fill="#FE5300"/>
</svg>
