<svg width="20" height="20" viewBox="0 0 20 20" fill="none" xmlns="http://www.w3.org/2000/svg">
<path fill-rule="evenodd" clip-rule="evenodd" d="M9.99984 18.3327C14.6022 18.3327 18.3332 14.6017 18.3332 9.99935C18.3332 5.39697 14.6022 1.66602 9.99984 1.66602C5.39746 1.66602 1.6665 5.39697 1.6665 9.99935C1.6665 14.6017 5.39746 18.3327 9.99984 18.3327Z" stroke="white" stroke-width="0.8" stroke-linecap="round" stroke-linejoin="round"/>
<path d="M1.6665 10H18.3332" stroke="white" stroke-width="0.8" stroke-linecap="round" stroke-linejoin="round"/>
<path fill-rule="evenodd" clip-rule="evenodd" d="M9.99984 18.3327C11.8408 18.3327 13.3332 14.6017 13.3332 9.99935C13.3332 5.39697 11.8408 1.66602 9.99984 1.66602C8.15888 1.66602 6.6665 5.39697 6.6665 9.99935C6.6665 14.6017 8.15888 18.3327 9.99984 18.3327Z" stroke="white" stroke-width="0.8" stroke-linecap="round" stroke-linejoin="round"/>
<path d="M4.10742 4.22656C5.61546 5.7346 7.69879 6.66735 9.99996 6.66735C12.3012 6.66735 14.3845 5.7346 15.8925 4.22656" stroke="white" stroke-width="0.8" stroke-linecap="round" stroke-linejoin="round"/>
<path d="M15.8925 15.7748C14.3845 14.2667 12.3012 13.334 9.99996 13.334C7.69879 13.334 5.61546 14.2667 4.10742 15.7748" stroke="white" stroke-width="0.8" stroke-linecap="round" stroke-linejoin="round"/>
</svg>
