<svg width="58" height="50" viewBox="0 0 58 50" fill="none" xmlns="http://www.w3.org/2000/svg">
<path d="M47.3424 0H11.1139L0.713867 22.6651L29.171 50L57.8567 22.6651L47.3424 0Z" fill="#03AC84"/>
<path d="M39.0149 17.7214V12.9961H19.668V17.7214H26.8005V20.8084C21.0027 21.0692 16.6367 22.2122 16.6367 23.5834C16.6367 24.9546 21.0027 26.0976 26.8005 26.3584V36.2658H31.8824V26.3561C37.6579 26.0913 42.0016 24.9506 42.0016 23.5834C42.0016 22.2162 37.6579 21.075 31.8824 20.8106V17.7214H39.0149ZM39.8173 23.3043C39.8173 24.2061 36.4414 24.9626 31.8824 25.1726L31.5878 25.1851H31.5552L31.2788 25.1953H31.249C31.0436 25.2025 30.8356 25.2084 30.6249 25.2132H30.6119L30.3293 25.219H30.2495L30.0266 25.2221H28.6148L28.3942 25.219H28.3175L28.0541 25.2136H28.0251C27.7127 25.2065 27.405 25.197 27.1019 25.1851H27.0979L26.7961 25.1721C22.2143 24.9653 18.8166 24.2061 18.8166 23.2999C18.8166 22.3936 22.2148 21.6367 26.7961 21.4276V24.2935C27.5913 24.335 28.4374 24.3577 29.3147 24.3577C30.2063 24.3577 31.0693 24.3345 31.878 24.2913V21.4361C36.441 21.6456 39.8173 22.4025 39.8173 23.3043Z" fill="white"/>
</svg>
